<svg width="177" height="27" viewBox="0 0 177 27" fill="none" xmlns="http://www.w3.org/2000/svg">
<path d="M15.4922 1.78125H27.9922V4.90625H24.8672V22.875H27.9922V26H15.4922V22.875H18.6172V16.625H10.0234V22.875H13.1484V26H0.648438V22.875H3.77344V4.90625H0.648438V1.78125H13.1484V4.90625H10.0234V13.5H18.6172V4.90625H15.4922V1.78125ZM30.3359 26V22.875H33.4609V4.90625H30.3359V1.78125H40.4922C42.8555 1.78125 44.7077 1.85612 46.0488 2.00586C47.3965 2.1556 48.4447 2.38997 49.1934 2.70898C49.9486 3.02148 50.6419 3.49349 51.2734 4.125C51.8398 4.69141 52.2663 5.4043 52.5527 6.26367C52.8457 7.11654 52.9922 8.03125 52.9922 9.00781C52.9922 9.80208 52.888 10.5378 52.6797 11.2148C52.4779 11.8854 52.1882 12.4811 51.8105 13.002C51.4395 13.5163 50.9805 13.9785 50.4336 14.3887C49.8932 14.7923 49.2943 15.1341 48.6367 15.4141C47.9792 15.694 47.25 15.9251 46.4492 16.1074C45.6549 16.2897 44.8314 16.4232 43.9785 16.5078C43.1322 16.5859 42.2305 16.625 41.2734 16.625H39.7109V22.875H43.6172V26H30.3359ZM39.7109 13.5H41.2734C44.3984 13.5 45.9609 12.0677 45.9609 9.20312C45.9609 8.70833 45.9251 8.25911 45.8535 7.85547C45.7884 7.45182 45.6647 7.0612 45.4824 6.68359C45.3001 6.30599 45.0658 5.99023 44.7793 5.73633C44.4928 5.48242 44.1185 5.2806 43.6562 5.13086C43.194 4.98112 42.6602 4.90625 42.0547 4.90625H39.7109V13.5ZM54.75 1.78125H64.9062L70.9414 13.2266L76.6543 1.78125H86V4.90625H82.875V22.875H86V26H73.5V22.875H76.625V8.7832L70.375 21.3125H68.4219L61.7812 8.73438V22.875H64.9062V26H54.75V22.875H57.875V4.90625H54.75V1.78125ZM93.8613 8.37305C95.0072 7.92383 96.2214 7.69922 97.5039 7.69922C98.7865 7.69922 99.9974 7.92383 101.137 8.37305C102.283 8.82227 103.279 9.45052 104.125 10.2578C104.971 11.0586 105.639 12.0482 106.127 13.2266C106.622 14.4049 106.869 15.6875 106.869 17.0742C106.869 18.4609 106.622 19.7435 106.127 20.9219C105.639 22.1003 104.971 23.0931 104.125 23.9004C103.279 24.7012 102.283 25.3262 101.137 25.7754C99.9974 26.2246 98.7865 26.4492 97.5039 26.4492C96.2214 26.4492 95.0072 26.2246 93.8613 25.7754C92.722 25.3262 91.7292 24.7012 90.8828 23.9004C90.043 23.0931 89.3757 22.1003 88.8809 20.9219C88.3926 19.7435 88.1484 18.4609 88.1484 17.0742C88.1484 15.6875 88.3926 14.4049 88.8809 13.2266C89.3757 12.0482 90.043 11.0586 90.8828 10.2578C91.7292 9.45052 92.722 8.82227 93.8613 8.37305ZM97.5039 10.8242C97.0482 10.8242 96.6413 10.8893 96.2832 11.0195C95.9251 11.1497 95.5964 11.3646 95.2969 11.6641C94.9974 11.9635 94.75 12.3509 94.5547 12.8262C94.3659 13.3014 94.2161 13.8939 94.1055 14.6035C94.0013 15.3132 93.9492 16.1367 93.9492 17.0742C93.9492 18.0117 94.0013 18.8353 94.1055 19.5449C94.2161 20.2546 94.3659 20.847 94.5547 21.3223C94.75 21.7975 94.9974 22.1849 95.2969 22.4844C95.5964 22.7839 95.9251 22.9987 96.2832 23.1289C96.6413 23.2591 97.0482 23.3242 97.5039 23.3242C98.0768 23.3242 98.5749 23.2168 98.998 23.002C99.4212 22.7806 99.7891 22.429 100.102 21.9473C100.421 21.4655 100.658 20.8177 100.814 20.0039C100.977 19.1901 101.059 18.2135 101.059 17.0742C101.059 15.9349 100.977 14.9583 100.814 14.1445C100.658 13.3307 100.421 12.6829 100.102 12.2012C99.7891 11.7194 99.4212 11.3711 98.998 11.1562C98.5749 10.9349 98.0768 10.8242 97.5039 10.8242ZM107.836 8.03125H118.773V11.1562H115.561L118.656 18.1875C119.053 19.112 119.34 19.8932 119.516 20.5312C119.691 19.8932 119.978 19.112 120.375 18.1875L123.461 11.1562H120.727V8.03125H128.93V11.1562H126.859L120.336 26H116.195L109.672 11.1562H107.836V8.03125ZM131.791 5.95117C131.186 5.33919 130.883 4.60026 130.883 3.73438C130.883 2.86849 131.186 2.13281 131.791 1.52734C132.403 0.915365 133.142 0.609375 134.008 0.609375C134.874 0.609375 135.609 0.915365 136.215 1.52734C136.827 2.13281 137.133 2.86849 137.133 3.73438C137.133 4.60026 136.827 5.33919 136.215 5.95117C135.609 6.55664 134.874 6.85938 134.008 6.85938C133.142 6.85938 132.403 6.55664 131.791 5.95117ZM129.32 8.03125H136.742V22.875H138.695V26H129.32V22.875H131.273V11.1562H129.32V8.03125ZM146.293 18.1875C146.352 18.9427 146.475 19.6165 146.664 20.209C146.853 20.8014 147.081 21.2865 147.348 21.6641C147.621 22.0417 147.937 22.3542 148.295 22.6016C148.653 22.8424 149.021 23.015 149.398 23.1191C149.776 23.2168 150.18 23.2656 150.609 23.2656C151.983 23.2656 153.054 23.002 153.822 22.4746C154.597 21.9408 155.215 21.1204 155.678 20.0137L158.275 20.9121C158.041 21.5436 157.742 22.1393 157.377 22.6992C157.019 23.2526 156.586 23.7637 156.078 24.2324C155.57 24.7012 155.004 25.1048 154.379 25.4434C153.76 25.7754 153.061 26.0358 152.279 26.2246C151.498 26.4134 150.674 26.5078 149.809 26.5078C148.526 26.5078 147.312 26.2832 146.166 25.834C145.027 25.3848 144.034 24.7598 143.188 23.959C142.348 23.1517 141.68 22.1589 141.186 20.9805C140.697 19.8021 140.453 18.5195 140.453 17.1328C140.453 15.7461 140.697 14.457 141.186 13.2656C141.68 12.0742 142.348 11.0716 143.188 10.2578C144.034 9.4375 145.027 8.79622 146.166 8.33398C147.312 7.87174 148.526 7.64062 149.809 7.64062C151.091 7.64062 152.302 7.87174 153.441 8.33398C154.587 8.79622 155.58 9.4375 156.42 10.2578C157.266 11.0716 157.934 12.0742 158.422 13.2656C158.917 14.457 159.164 15.7461 159.164 17.1328L158.92 18.1875H146.293ZM146.361 15.0625H153.256C153.087 13.5651 152.712 12.4746 152.133 11.791C151.553 11.1074 150.785 10.7656 149.828 10.7656C149.353 10.7656 148.926 10.8438 148.549 11C148.171 11.1497 147.833 11.3939 147.533 11.7324C147.234 12.0645 146.983 12.5104 146.781 13.0703C146.586 13.6237 146.446 14.2878 146.361 15.0625ZM166.469 22.8848C166.84 23.1387 167.4 23.2656 168.148 23.2656C168.819 23.2656 169.363 23.2266 169.779 23.1484C170.202 23.0703 170.521 22.9434 170.736 22.7676C170.951 22.5853 171.094 22.3867 171.166 22.1719C171.238 21.9505 171.273 21.6641 171.273 21.3125C171.273 20.8958 171.163 20.5378 170.941 20.2383C170.72 19.9388 170.421 19.6979 170.043 19.5156C169.665 19.3333 169.232 19.1738 168.744 19.0371C168.256 18.8939 167.742 18.7604 167.201 18.6367C166.661 18.5065 166.12 18.3665 165.58 18.2168C165.04 18.0605 164.525 17.8587 164.037 17.6113C163.549 17.3574 163.116 17.0612 162.738 16.7227C162.361 16.3776 162.061 15.9316 161.84 15.3848C161.618 14.8379 161.508 14.2096 161.508 13.5C161.508 12.849 161.586 12.2565 161.742 11.7227C161.898 11.1888 162.107 10.7363 162.367 10.3652C162.628 9.98763 162.956 9.65885 163.354 9.37891C163.751 9.09896 164.164 8.87435 164.594 8.70508C165.03 8.53581 165.518 8.39909 166.059 8.29492C166.605 8.19076 167.133 8.1224 167.641 8.08984C168.148 8.05078 168.702 8.03125 169.301 8.03125C170.603 8.03125 171.739 8.19727 172.709 8.5293C173.686 8.86133 174.454 9.30729 175.014 9.86719C175.313 10.1211 175.544 10.4303 175.707 10.7949C175.876 11.153 175.961 11.5339 175.961 11.9375C175.961 12.6927 175.694 13.3372 175.16 13.8711C174.626 14.4049 173.982 14.6719 173.227 14.6719C172.471 14.6719 171.827 14.4049 171.293 13.8711C170.759 13.3372 170.492 12.6927 170.492 11.9375C170.492 11.6641 170.531 11.4004 170.609 11.1465C170.238 10.8926 169.678 10.7656 168.93 10.7656C168.012 10.7656 167.325 10.8763 166.869 11.0977C166.42 11.319 166.195 11.7292 166.195 12.3281C166.195 12.7057 166.29 13.041 166.479 13.334C166.667 13.6204 166.924 13.8581 167.25 14.0469C167.576 14.2292 167.953 14.4049 168.383 14.5742C168.819 14.737 169.281 14.877 169.77 14.9941C170.258 15.1048 170.759 15.2415 171.273 15.4043C171.788 15.5671 172.289 15.7331 172.777 15.9023C173.266 16.0716 173.725 16.2962 174.154 16.5762C174.59 16.8496 174.971 17.1589 175.297 17.5039C175.622 17.849 175.88 18.2819 176.068 18.8027C176.257 19.3171 176.352 19.8932 176.352 20.5312C176.352 21.4427 176.199 22.2467 175.893 22.9434C175.593 23.6335 175.189 24.1934 174.682 24.623C174.18 25.0527 173.555 25.4043 172.807 25.6777C172.058 25.9447 171.28 26.1302 170.473 26.2344C169.665 26.3385 168.767 26.3906 167.777 26.3906C165.779 26.3906 164.167 26.0098 162.943 25.248C161.726 24.4863 161.117 23.4349 161.117 22.0938C161.117 21.3385 161.384 20.694 161.918 20.1602C162.452 19.6263 163.096 19.3594 163.852 19.3594C164.607 19.3594 165.251 19.6263 165.785 20.1602C166.319 20.694 166.586 21.3385 166.586 22.0938C166.586 22.3672 166.547 22.6309 166.469 22.8848Z" fill="#EBEBEB"/>
</svg>
